<?xml version="1.0" encoding="UTF-8" standalone="no"?>
<!-- Created with Inkscape (http://www.inkscape.org/) -->

<svg
   xmlns:dc="http://purl.org/dc/elements/1.1/"
   xmlns:cc="http://creativecommons.org/ns#"
   xmlns:rdf="http://www.w3.org/1999/02/22-rdf-syntax-ns#"
   xmlns:svg="http://www.w3.org/2000/svg"
   xmlns="http://www.w3.org/2000/svg"
   xmlns:sodipodi="http://sodipodi.sourceforge.net/DTD/sodipodi-0.dtd"
   xmlns:inkscape="http://www.inkscape.org/namespaces/inkscape"
   width="200"
   height="142.69484"
   id="svg3097"
   version="1.1"
   inkscape:version="0.91 r13725"
   sodipodi:docname="ignition_logo.svg">
  <defs
     id="defs3099" />
  <sodipodi:namedview
     id="base"
     pagecolor="#ffffff"
     bordercolor="#666666"
     borderopacity="1.0"
     inkscape:pageopacity="0.0"
     inkscape:pageshadow="2"
     inkscape:zoom="2.8"
     inkscape:cx="-6.9944476"
     inkscape:cy="22.838423"
     inkscape:document-units="px"
     inkscape:current-layer="layer1"
     showgrid="false"
     fit-margin-top="0"
     fit-margin-left="0"
     fit-margin-right="0"
     fit-margin-bottom="0"
     inkscape:window-width="1908"
     inkscape:window-height="1051"
     inkscape:window-x="457"
     inkscape:window-y="89"
     inkscape:window-maximized="0" />
  <metadata
     id="metadata3102">
    <rdf:RDF>
      <cc:Work
         rdf:about="">
        <dc:format>image/svg+xml</dc:format>
        <dc:type
           rdf:resource="http://purl.org/dc/dcmitype/StillImage" />
        <dc:title />
      </cc:Work>
    </rdf:RDF>
  </metadata>
  <g
     inkscape:label="Layer 1"
     inkscape:groupmode="layer"
     id="layer1"
     transform="translate(-159.66847,-519.63152)">
    <g
       id="g94"
       transform="matrix(0.52694138,0,0,-0.52694138,202.09215,616.13317)">
      <path
         d="m 0,0 -16.087,0 c -4.42,0 -8.043,-3.623 -8.043,-8.044 l 0,-8.044 c 0,-4.42 3.623,-8.043 8.043,-8.043 L 0,-24.131 0,0 Z m -8.043,-48.262 -22.174,0 c -1.087,0 -1.957,0.87 -1.957,2.03 l 0,3.986 c 0,1.158 0.87,2.028 1.957,2.028 l 22.174,0 c 4.42,0 8.043,3.623 8.043,8.044 l -16.087,0 c -8.841,0 -16.087,7.246 -16.087,16.086 l 0,8.044 c 0,8.913 7.246,16.16 16.087,16.16 l 22.102,0 c 1.159,0 2.028,-0.942 2.028,-2.03 l 0,-38.26 c 0,-8.842 -7.246,-16.088 -16.086,-16.088"
         style="fill:#606163;fill-opacity:1;fill-rule:nonzero;stroke:none"
         id="path96"
         inkscape:connector-curvature="0" />
    </g>
    <g
       id="g4199"
       transform="matrix(0.4215531,0,0,0.4215531,92.359732,383.12063)">
      <g
         id="g4174">
        <g
           id="g44"
           transform="matrix(1.25,0,0,-1.25,389.76025,331.23471)">
          <path
             d="m 0,0 c 0,-3.272 2.927,-5.924 6.534,-5.924 3.61,0 6.535,2.652 6.535,5.924 0,3.272 -2.925,5.925 -6.535,5.925 C 2.927,5.925 0,3.272 0,0"
             style="fill:#f1623b;fill-opacity:1;fill-rule:nonzero;stroke:none"
             id="path46"
             inkscape:connector-curvature="0" />
        </g>
        <g
           id="g48"
           transform="matrix(1.25,0,0,-1.25,369.82862,394.56733)">
          <path
             d="m 0,0 c 0,-5.404 -4.833,-9.788 -10.797,-9.788 -5.962,0 -10.798,4.384 -10.798,9.788 0,1.761 0.513,3.412 1.412,4.84 1.86,2.956 5.366,4.949 9.386,4.949 C -4.833,9.789 0,5.406 0,0"
             style="fill:#f1623b;fill-opacity:1;fill-rule:nonzero;stroke:none"
             id="path50"
             inkscape:connector-curvature="0" />
        </g>
        <g
           id="g52"
           transform="matrix(1.25,0,0,-1.25,337.86512,375.95645)">
          <path
             d="m 0,0 c 0,-2.816 -2.52,-5.1 -5.626,-5.1 -3.108,0 -5.626,2.284 -5.626,5.1 0,2.816 2.518,5.101 5.626,5.101 C -2.52,5.101 0,2.816 0,0"
             style="fill:#f1623b;fill-opacity:1;fill-rule:nonzero;stroke:none"
             id="path54"
             inkscape:connector-curvature="0" />
        </g>
        <path
           d="m 334.872,370.83683 -7.95625,0 0,-15.96875 7.95625,0 0,15.96875 z"
           style="fill:#f1623b;fill-opacity:1;fill-rule:nonzero;stroke:none"
           id="path56"
           inkscape:connector-curvature="0" />
        <g
           id="g58"
           transform="matrix(1.25,0,0,-1.25,349.28362,389.69421)">
          <path
             d="M 0,0 -4.691,-3.898 -15.124,6.425 -10.433,10.321 0,0 Z"
             style="fill:#f1623b;fill-opacity:1;fill-rule:nonzero;stroke:none"
             id="path60"
             inkscape:connector-curvature="0" />
        </g>
        <g
           id="g62"
           transform="matrix(1.25,0,0,-1.25,324.0755,339.67108)">
          <path
             d="m 0,0 c 0,0 0.454,-6.8 5.455,-6.8 5.001,0 5.228,5.358 5.228,5.358 0,0 7.954,-11.538 -5.228,-11.538 C -7.729,-12.98 0,0 0,0"
             style="fill:#f1623b;fill-opacity:1;fill-rule:nonzero;stroke:none"
             id="path64"
             inkscape:connector-curvature="0" />
        </g>
        <g
           id="g66"
           transform="matrix(1.25,0,0,-1.25,422.71925,394.56733)">
          <path
             d="m 0,0 c 0,-5.404 4.833,-9.788 10.794,-9.788 5.965,0 10.799,4.384 10.799,9.788 0,1.761 -0.512,3.412 -1.409,4.84 -1.861,2.956 -5.368,4.949 -9.39,4.949 C 4.833,9.789 0,5.406 0,0"
             style="fill:#f1623b;fill-opacity:1;fill-rule:nonzero;stroke:none"
             id="path68"
             inkscape:connector-curvature="0" />
        </g>
        <g
           id="g70"
           transform="matrix(1.25,0,0,-1.25,454.68275,375.95645)">
          <path
             d="m 0,0 c 0,-2.816 2.52,-5.1 5.626,-5.1 3.107,0 5.628,2.284 5.628,5.1 0,2.816 -2.521,5.101 -5.628,5.101 C 2.52,5.101 0,2.816 0,0"
             style="fill:#f1623b;fill-opacity:1;fill-rule:nonzero;stroke:none"
             id="path72"
             inkscape:connector-curvature="0" />
        </g>
        <path
           d="m 457.67575,370.83683 7.9575,0 0,-15.96875 -7.9575,0 0,15.96875 z"
           style="fill:#f1623b;fill-opacity:1;fill-rule:nonzero;stroke:none"
           id="path74"
           inkscape:connector-curvature="0" />
        <g
           id="g76"
           transform="matrix(1.25,0,0,-1.25,443.26312,389.69421)">
          <path
             d="M 0,0 4.692,-3.898 15.124,6.425 10.432,10.321 0,0 Z"
             style="fill:#f1623b;fill-opacity:1;fill-rule:nonzero;stroke:none"
             id="path78"
             inkscape:connector-curvature="0" />
        </g>
        <g
           id="g80"
           transform="matrix(1.25,0,0,-1.25,468.47125,339.67108)">
          <path
             d="m 0,0 c 0,0 -0.452,-6.8 -5.454,-6.8 -4.999,0 -5.23,5.358 -5.23,5.358 0,0 -7.953,-11.538 5.23,-11.538 C 7.728,-12.98 0,0 0,0"
             style="fill:#f1623b;fill-opacity:1;fill-rule:nonzero;stroke:none"
             id="path82"
             inkscape:connector-curvature="0" />
        </g>
        <path
           d="m 422.7195,379.30433 -52.28125,0 0,-14.42375 52.28125,0 0,14.42375 z m -21.455,-35.80125 0,-6.76125 c 0,-1.81625 -1.62,-3.285 -3.62125,-3.285 -2.00125,0 -3.6225,1.46875 -3.6225,3.285 l 0,6.585 c -20.4625,1.18125 -36.6525,16.37 -36.6525,34.94875 l 0,46.6225 c 0,10.23875 9.1575,12.105 20.4575,12.105 l 37.505,0 c 11.29875,0 20.4575,-1.86625 20.4575,-12.105 l 0,-46.6225 c 0,-17.93 -15.0825,-32.70125 -34.52375,-34.7725"
           style="fill:#f1623b;fill-opacity:1;fill-rule:nonzero;stroke:none"
           id="path84"
           inkscape:connector-curvature="0" />
        <g
           id="g86"
           transform="matrix(1.25,0,0,-1.25,378.879,495.55483)">
          <path
             d="m 0,0 c 0,0 1.215,6.836 3.784,6.836 0.135,-6.393 8.377,-10.801 6.187,-21.166 19.458,7.497 20.304,31.971 20.304,31.971 0,0 -0.117,-0.883 4.259,-5.733 7.786,20.727 -10.451,29.928 -10.451,29.928 l -1.348,0.003 C 23.916,40.416 28.458,33.285 15.008,19.623 9.585,25.687 0.048,33.539 5.561,41.89 4.985,41.89 4.394,41.893 3.784,41.893 -20.647,23.148 0,0 0,0"
             style="fill:#f1623b;fill-opacity:1;fill-rule:nonzero;stroke:none"
             id="path88"
             inkscape:connector-curvature="0" />
        </g>
      </g>
      <g
         transform="matrix(1.25,0,0,-1.25,207.40347,592.96504)"
         id="g90">
        <path
           inkscape:connector-curvature="0"
           id="path92"
           style="fill:#606163;fill-opacity:1;fill-rule:nonzero;stroke:none"
           d="m 0,0 -36.232,0 c -1.087,0 -1.956,0.869 -1.956,2.028 l 0,3.986 c 0,1.16 0.869,2.029 1.956,2.029 l 14.13,0 0,40.29 -6.086,0 c -1.087,0 -1.957,0.87 -1.957,1.957 l 0,4.058 c 0,1.159 0.87,2.028 1.957,2.028 l 20.145,0 c 1.159,0 2.028,-0.869 2.028,-2.028 l 0,-4.058 c 0,-1.087 -0.869,-1.957 -2.028,-1.957 l -6.015,0 0,-40.29 14.058,0 c 1.159,0 2.029,-0.869 2.029,-2.029 l 0,-3.986 C 2.029,0.869 1.159,0 0,0" />
      </g>
      <g
         transform="matrix(1.25,0,0,-1.25,328.24334,592.96504)"
         id="g98">
        <path
           inkscape:connector-curvature="0"
           id="path100"
           style="fill:#606163;fill-opacity:1;fill-rule:nonzero;stroke:none"
           d="m 0,0 -3.985,0 c -1.161,0 -2.03,0.869 -2.03,2.028 l 0,22.102 c 0,4.421 -3.623,8.044 -8.043,8.044 l -16.087,0 0,-30.146 C -30.145,0.869 -31.087,0 -32.174,0 l -4.058,0 c -1.087,0 -1.956,0.869 -1.956,2.028 l 0,36.232 c 0,1.088 0.869,2.03 1.956,2.03 l 22.174,0 c 8.84,0 16.086,-7.247 16.086,-16.16 l 0,-22.102 C 2.028,0.869 1.159,0 0,0" />
      </g>
      <g
         transform="matrix(1.25,0,0,-1.25,368.55463,532.54879)"
         id="g102">
        <path
           inkscape:connector-curvature="0"
           id="path104"
           style="fill:#606163;fill-opacity:1;fill-rule:nonzero;stroke:none"
           d="m 0,0 -3.986,0 c -1.159,0 -2.029,0.87 -2.029,1.957 l 0,4.058 c 0,1.159 0.87,2.028 2.029,2.028 l 3.986,0 c 1.159,0 2.029,-0.869 2.029,-2.028 l 0,-4.058 C 2.029,0.87 1.159,0 0,0 m 16.087,-48.333 -36.232,0 c -1.087,0 -1.957,0.869 -1.957,2.028 l 0,3.986 c 0,1.16 0.87,2.029 1.957,2.029 l 14.13,0 0,24.131 -6.087,0 c -1.086,0 -1.957,0.942 -1.957,2.029 l 0,4.057 c 0,1.088 0.871,2.03 1.957,2.03 l 12.102,0 c 1.159,0 2.029,-0.942 2.029,-2.03 l 0,-30.217 14.058,0 c 1.159,0 2.028,-0.869 2.028,-2.029 l 0,-3.986 c 0,-1.159 -0.869,-2.028 -2.028,-2.028" />
      </g>
      <g
         transform="matrix(1.25,0,0,-1.25,449.08313,592.96504)"
         id="g106">
        <path
           inkscape:connector-curvature="0"
           id="path108"
           style="fill:#606163;fill-opacity:1;fill-rule:nonzero;stroke:none"
           d="m 0,0 -6.015,0 c -8.839,0 -16.087,7.246 -16.087,16.086 l 0,16.088 -14.129,0 c -1.088,0 -1.957,0.942 -1.957,2.029 l 0,4.057 c 0,1.088 0.869,2.03 1.957,2.03 l 14.129,0 0,14.058 c 0,1.159 0.871,2.028 2.029,2.028 l 3.986,0 c 1.159,0 2.029,-0.869 2.029,-2.028 l 0,-14.058 14.058,0 c 1.159,0 2.028,-0.942 2.028,-2.03 l 0,-4.057 C 2.028,33.116 1.159,32.174 0,32.174 l -14.058,0 0,-16.088 c 0,-4.42 3.623,-8.043 8.043,-8.043 l 6.015,0 c 1.159,0 2.028,-0.869 2.028,-2.029 l 0,-3.986 C 2.028,0.869 1.159,0 0,0" />
      </g>
      <g
         transform="matrix(1.25,0,0,-1.25,489.39443,532.54879)"
         id="g110">
        <path
           inkscape:connector-curvature="0"
           id="path112"
           style="fill:#606163;fill-opacity:1;fill-rule:nonzero;stroke:none"
           d="m 0,0 -3.986,0 c -1.159,0 -2.029,0.87 -2.029,1.957 l 0,4.058 c 0,1.159 0.87,2.028 2.029,2.028 l 3.986,0 c 1.159,0 2.029,-0.869 2.029,-2.028 l 0,-4.058 C 2.029,0.87 1.159,0 0,0 m 16.087,-48.333 -36.232,0 c -1.087,0 -1.957,0.869 -1.957,2.028 l 0,3.986 c 0,1.16 0.87,2.029 1.957,2.029 l 14.13,0 0,24.131 -6.087,0 c -1.086,0 -1.957,0.942 -1.957,2.029 l 0,4.057 c 0,1.088 0.871,2.03 1.957,2.03 l 12.102,0 c 1.159,0 2.029,-0.942 2.029,-2.03 l 0,-30.217 14.058,0 c 1.159,0 2.028,-0.869 2.028,-2.029 l 0,-3.986 c 0,-1.159 -0.869,-2.028 -2.028,-2.028" />
      </g>
      <g
         transform="matrix(1.25,0,0,-1.25,562.40473,562.80266)"
         id="g114">
        <path
           inkscape:connector-curvature="0"
           id="path116"
           style="fill:#606163;fill-opacity:1;fill-rule:nonzero;stroke:none"
           d="m 0,0 c 0,4.421 -3.623,8.044 -8.043,8.044 l -8.044,0 c -4.421,0 -8.044,-3.623 -8.044,-8.044 l 0,-8.044 c 0,-4.42 3.623,-8.043 8.044,-8.043 l 8.044,0 c 4.42,0 8.043,3.623 8.043,8.043 L 0,0 Z m -8.043,-24.13 -8.044,0 c -8.841,0 -16.087,7.246 -16.087,16.086 l 0,8.044 c 0,8.913 7.246,16.16 16.087,16.16 l 8.044,0 C 0.797,16.16 8.043,8.913 8.043,0 l 0,-8.044 c 0,-8.84 -7.246,-16.086 -16.086,-16.086" />
      </g>
      <g
         transform="matrix(1.25,0,0,-1.25,630.34173,592.96504)"
         id="g118">
        <path
           inkscape:connector-curvature="0"
           id="path120"
           style="fill:#606163;fill-opacity:1;fill-rule:nonzero;stroke:none"
           d="m 0,0 -3.984,0 c -1.161,0 -2.03,0.869 -2.03,2.028 l 0,22.102 c 0,4.421 -3.623,8.044 -8.043,8.044 l -16.088,0 0,-30.146 C -30.145,0.869 -31.086,0 -32.174,0 l -4.056,0 c -1.088,0 -1.958,0.869 -1.958,2.028 l 0,36.232 c 0,1.088 0.87,2.03 1.958,2.03 l 22.173,0 c 8.84,0 16.086,-7.247 16.086,-16.16 l 0,-22.102 C 2.029,0.869 1.16,0 0,0" />
      </g>
    </g>
    <text
       xml:space="preserve"
       style="font-style:normal;font-weight:normal;font-size:16.86212349px;line-height:125%;font-family:Sans;letter-spacing:0px;word-spacing:0px;fill:#000000;fill-opacity:1;stroke:none"
       x="256.71619"
       y="658.03986"
       id="text3104"
       sodipodi:linespacing="125%"><tspan
         sodipodi:role="line"
         id="tspan3106"
         x="256.71619"
         y="658.03986"
         style="font-size:20.23454857px;fill:#666666">Rendering</tspan></text>
  </g>
</svg>
